<?xml version="1.0" encoding="UTF-8" standalone="no"?>
<!DOCTYPE svg PUBLIC "-//W3C//DTD SVG 1.1//EN"
 "http://www.w3.org/Graphics/SVG/1.1/DTD/svg11.dtd">
<!-- Generated by graphviz version 2.38.0 (20140413.2041)
 -->
<!-- Title: templage Pages: 1 -->
<svg width="155pt" height="218pt"
 viewBox="0.00 0.00 154.59 218.00" xmlns="http://www.w3.org/2000/svg" xmlns:xlink="http://www.w3.org/1999/xlink">
<g id="graph0" class="graph" transform="scale(1 1) rotate(0) translate(4 214)">
<title>templage</title>
<polygon fill="white" stroke="none" points="-4,4 -4,-214 150.594,-214 150.594,4 -4,4"/>
<!-- node1 -->
<g id="node1" class="node"><title>node1</title>
<ellipse fill="none" stroke="purple" cx="67.594" cy="-192" rx="67.6881" ry="18"/>
<text text-anchor="middle" x="67.594" y="-188.3" font-family="Times New Roman,serif" font-size="14.00" fill="#000080">label_of_node1</text>
</g>
<!-- node2 -->
<g id="node2" class="node"><title>node2</title>
<ellipse fill="none" stroke="purple" cx="67.594" cy="-105" rx="67.6881" ry="18"/>
<text text-anchor="middle" x="67.594" y="-101.3" font-family="Times New Roman,serif" font-size="14.00" fill="#000080">label_of_node2</text>
</g>
<!-- node1&#45;&gt;node2 -->
<g id="edge1" class="edge"><title>node1&#45;&gt;node2</title>
<path fill="none" stroke="grey" d="M67.594,-173.799C67.594,-162.163 67.594,-146.548 67.594,-133.237"/>
<polygon fill="grey" stroke="grey" points="71.0941,-133.175 67.594,-123.175 64.0941,-133.175 71.0941,-133.175"/>
<text text-anchor="middle" x="107.094" y="-144.8" font-family="Times New Roman,serif" font-size="14.00" fill="grey">label_of_line1</text>
</g>
<!-- node3 -->
<g id="node3" class="node"><title>node3</title>
<polygon fill="grey" stroke="grey" points="119.594,-36 15.594,-36 15.594,-0 119.594,-0 119.594,-36"/>
<text text-anchor="middle" x="67.594" y="-14.3" font-family="Times New Roman,serif" font-size="14.00" fill="#000080">label_of_node3</text>
</g>
<!-- node2&#45;&gt;node3 -->
<g id="edge2" class="edge"><title>node2&#45;&gt;node3</title>
<path fill="none" stroke="grey" d="M67.594,-86.799C67.594,-75.1626 67.594,-59.5479 67.594,-46.2368"/>
<polygon fill="grey" stroke="grey" points="71.0941,-46.1754 67.594,-36.1754 64.0941,-46.1755 71.0941,-46.1754"/>
<text text-anchor="middle" x="107.094" y="-57.8" font-family="Times New Roman,serif" font-size="14.00" fill="grey">label_of_line2</text>
</g>
</g>
</svg>
